<svg width="10282" height="456" viewBox="0 0 10282 456" fill="none" xmlns="http://www.w3.org/2000/svg">
<path d="M158.08 250.8C164.92 250.8 170.367 252.953 174.42 257.26C178.727 261.313 180.88 266.76 180.88 273.6V300.2C180.88 307.04 178.727 312.613 174.42 316.92C170.367 320.973 164.92 323 158.08 323H32.68C25.84 323 20.2667 320.973 15.96 316.92C11.9067 312.613 9.88 307.04 9.88 300.2V79.8C9.88 72.96 11.9067 67.5133 15.96 63.46C20.2667 59.1533 25.84 57 32.68 57H75.62C82.46 57 87.9067 59.1533 91.96 63.46C96.2667 67.5133 98.42 72.96 98.42 79.8V228C98.42 237.12 99.94 243.2 102.98 246.24C106.02 249.28 112.1 250.8 121.22 250.8H158.08ZM311.098 326.8C269.552 326.8 238.645 315.653 218.378 293.36C198.365 271.067 188.358 236.613 188.358 190C188.358 143.387 198.365 108.933 218.378 86.64C238.645 64.3467 269.552 53.2 311.098 53.2C352.898 53.2 383.805 64.3467 403.818 86.64C424.085 108.68 434.218 143.133 434.218 190C434.218 236.867 424.085 271.447 403.818 293.74C383.805 315.78 352.898 326.8 311.098 326.8ZM311.478 254.6C317.305 254.6 322.118 253.713 325.918 251.94C329.718 250.167 332.758 246.873 335.038 242.06C337.318 237.247 338.838 230.66 339.598 222.3C340.612 213.687 341.118 202.667 341.118 189.24C341.118 176.573 340.612 166.187 339.598 158.08C338.838 149.72 337.318 143.133 335.038 138.32C332.758 133.507 329.718 130.213 325.918 128.44C322.118 126.413 317.178 125.4 311.098 125.4C305.272 125.4 300.458 126.287 296.658 128.06C292.858 129.833 289.818 133.127 287.538 137.94C285.258 142.753 283.612 149.34 282.598 157.7C281.838 166.06 281.458 176.827 281.458 190C281.458 203.173 281.838 213.94 282.598 222.3C283.612 230.66 285.258 237.247 287.538 242.06C289.818 246.873 292.858 250.167 296.658 251.94C300.712 253.713 305.652 254.6 311.478 254.6ZM456.84 323C447.72 323 441.893 321.48 439.36 318.44C437.08 315.4 436.953 309.447 438.98 300.58L486.86 79.42C488.38 72.58 491.673 67.1333 496.74 63.08C501.807 59.0267 507.76 57 514.6 57H615.68C622.52 57 628.474 59.0267 633.54 63.08C638.607 67.1333 641.9 72.58 643.42 79.42L691.3 300.58C693.327 309.447 693.074 315.4 690.54 318.44C688.26 321.48 682.56 323 673.44 323H625.94C618.847 323 613.654 321.733 610.36 319.2C607.067 316.667 604.914 311.98 603.9 305.14C602.38 297.793 600.1 292.98 597.06 290.7C594.02 288.42 588.827 287.28 581.48 287.28H548.8C541.454 287.28 536.26 288.42 533.22 290.7C530.434 292.98 528.28 297.793 526.76 305.14C524.987 311.98 522.834 316.667 520.3 319.2C517.767 321.733 512.447 323 504.34 323H456.84ZM566.66 215.08C578.567 215.08 583.127 208.873 580.34 196.46L570.08 149.34C569.32 145.793 567.674 144.02 565.14 144.02C562.607 144.02 560.96 145.793 560.2 149.34L550.32 196.46C547.534 208.873 551.967 215.08 563.62 215.08H566.66ZM711.877 79.8C711.877 72.96 713.903 67.5133 717.957 63.46C722.263 59.1533 727.837 57 734.677 57H836.517C876.543 57 906.437 67.5133 926.197 88.54C945.957 109.567 955.837 143.387 955.837 190C955.837 236.613 945.83 270.433 925.817 291.46C905.803 312.487 875.023 323 833.477 323H734.677C727.837 323 722.263 320.973 717.957 316.92C713.903 312.613 711.877 307.04 711.877 300.2V79.8ZM800.417 148.2V231.8C800.417 239.147 802.57 244.847 806.877 248.9C811.437 252.7 817.263 254.6 824.357 254.6C832.717 254.6 839.43 252.447 844.497 248.14C849.563 243.833 853.49 238.387 856.277 231.8C859.317 225.213 861.217 218.12 861.977 210.52C862.99 202.92 863.497 195.953 863.497 189.62C863.497 183.287 862.99 176.447 861.977 169.1C860.963 161.5 859.063 154.533 856.277 148.2C853.49 141.613 849.563 136.167 844.497 131.86C839.43 127.553 832.717 125.4 824.357 125.4C817.263 125.4 811.437 127.427 806.877 131.48C802.57 135.28 800.417 140.853 800.417 148.2ZM997.129 323C990.289 323 984.716 320.973 980.409 316.92C976.356 312.613 974.329 307.04 974.329 300.2V79.8C974.329 72.96 976.356 67.5133 980.409 63.46C984.716 59.1533 990.289 57 997.129 57H1040.07C1046.91 57 1052.36 59.1533 1056.41 63.46C1060.72 67.5133 1062.87 72.96 1062.87 79.8V300.2C1062.87 307.04 1060.72 312.613 1056.41 316.92C1052.36 320.973 1046.91 323 1040.07 323H997.129ZM1309.94 56.62C1316.78 56.62 1322.35 58.7733 1326.66 63.08C1330.96 67.3867 1333.12 72.96 1333.12 79.8V300.2C1333.12 307.04 1330.96 312.613 1326.66 316.92C1322.35 321.227 1316.78 323.38 1309.94 323.38H1267C1262.44 323.38 1258.51 323.127 1255.22 322.62C1251.92 321.86 1249.01 320.72 1246.48 319.2C1243.94 317.68 1241.54 315.653 1239.26 313.12C1236.98 310.587 1234.7 307.42 1232.42 303.62L1192.52 236.36C1190.24 233.067 1187.45 231.42 1184.16 231.42C1181.88 231.42 1179.85 232.307 1178.08 234.08C1176.3 235.6 1175.42 237.88 1175.42 240.92V300.2C1175.42 307.04 1173.26 312.613 1168.96 316.92C1164.65 321.227 1159.08 323.38 1152.24 323.38H1109.3C1102.46 323.38 1096.88 321.227 1092.58 316.92C1088.27 312.613 1086.12 307.04 1086.12 300.2V79.8C1086.12 72.96 1088.27 67.3867 1092.58 63.08C1096.88 58.7733 1102.46 56.62 1109.3 56.62H1160.22C1166.3 56.62 1170.73 57.5067 1173.52 59.28C1176.56 61.0533 1179.72 64.6 1183.02 69.92L1226.72 143.64C1229 146.933 1231.78 148.58 1235.08 148.58C1237.36 148.58 1239.38 147.82 1241.16 146.3C1242.93 144.527 1243.82 142.12 1243.82 139.08V79.8C1243.82 72.96 1245.97 67.3867 1250.28 63.08C1254.58 58.7733 1260.16 56.62 1267 56.62H1309.94ZM1589.31 193.04C1593.87 240.16 1586.52 274.233 1567.27 295.26C1548.02 316.287 1517.62 326.8 1476.07 326.8C1433.76 326.8 1402.48 315.653 1382.21 293.36C1361.94 271.067 1351.81 236.613 1351.81 190C1351.81 165.173 1354.09 144.147 1358.65 126.92C1363.21 109.44 1370.81 95.2533 1381.45 84.36C1392.34 73.4667 1406.66 65.6133 1424.39 60.8C1442.38 55.7333 1464.8 53.2 1491.65 53.2C1492.41 53.2 1495.45 53.2 1500.77 53.2C1506.09 53.2 1512.17 53.3267 1519.01 53.58C1526.1 53.58 1533.32 53.7067 1540.67 53.96C1548.02 53.96 1554.1 54.2133 1558.91 54.72C1567.02 55.2266 1572.84 57.5066 1576.39 61.56C1579.94 65.6133 1581.71 71.9467 1581.71 80.56V107.16C1581.71 115.267 1579.94 120.587 1576.39 123.12C1573.1 125.4 1567.27 126.54 1558.91 126.54H1493.17C1484.3 126.54 1476.83 127.3 1470.75 128.82C1464.67 130.087 1459.73 133 1455.93 137.56C1452.13 142.12 1449.34 148.58 1447.57 156.94C1445.8 165.3 1444.91 176.32 1444.91 190C1444.91 203.173 1445.29 213.94 1446.05 222.3C1447.06 230.66 1448.84 237.247 1451.37 242.06C1453.9 246.873 1457.2 250.167 1461.25 251.94C1465.56 253.713 1470.88 254.6 1477.21 254.6C1483.04 254.6 1487.72 253.713 1491.27 251.94C1495.07 250.167 1497.98 246.367 1500.01 240.54C1501.28 236.487 1500.77 233.193 1498.49 230.66C1496.46 227.873 1493.17 226.48 1488.61 226.48C1484.3 226.48 1480.76 225.213 1477.97 222.68C1475.44 219.893 1474.3 216.347 1474.55 212.04V177.08C1474.3 170.24 1476.32 164.793 1480.63 160.74C1484.94 156.433 1490.51 154.28 1497.35 154.28H1562.71C1569.55 154.28 1575.25 156.307 1579.81 160.36C1584.37 164.413 1587.03 169.86 1587.79 176.7L1589.31 193.04Z" fill="white"/>
<path d="M1658.51 186.485C1663.2 181.799 1670.8 181.799 1675.49 186.485L1708.51 219.515C1713.2 224.201 1713.2 231.799 1708.51 236.485L1675.49 269.515C1670.8 274.201 1663.2 274.201 1658.51 269.515L1625.49 236.485C1620.8 231.799 1620.8 224.201 1625.49 219.515L1658.51 186.485Z" fill="white"/>
<path d="M1895.08 250.8C1901.92 250.8 1907.37 252.953 1911.42 257.26C1915.73 261.313 1917.88 266.76 1917.88 273.6V300.2C1917.88 307.04 1915.73 312.613 1911.42 316.92C1907.37 320.973 1901.92 323 1895.08 323H1769.68C1762.84 323 1757.27 320.973 1752.96 316.92C1748.91 312.613 1746.88 307.04 1746.88 300.2V79.8C1746.88 72.96 1748.91 67.5133 1752.96 63.46C1757.27 59.1533 1762.84 57 1769.68 57H1812.62C1819.46 57 1824.91 59.1533 1828.96 63.46C1833.27 67.5133 1835.42 72.96 1835.42 79.8V228C1835.42 237.12 1836.94 243.2 1839.98 246.24C1843.02 249.28 1849.1 250.8 1858.22 250.8H1895.08ZM2048.1 326.8C2006.55 326.8 1975.64 315.653 1955.38 293.36C1935.36 271.067 1925.36 236.613 1925.36 190C1925.36 143.387 1935.36 108.933 1955.38 86.64C1975.64 64.3467 2006.55 53.2 2048.1 53.2C2089.9 53.2 2120.8 64.3467 2140.82 86.64C2161.08 108.68 2171.22 143.133 2171.22 190C2171.22 236.867 2161.08 271.447 2140.82 293.74C2120.8 315.78 2089.9 326.8 2048.1 326.8ZM2048.48 254.6C2054.3 254.6 2059.12 253.713 2062.92 251.94C2066.72 250.167 2069.76 246.873 2072.04 242.06C2074.32 237.247 2075.84 230.66 2076.6 222.3C2077.61 213.687 2078.12 202.667 2078.12 189.24C2078.12 176.573 2077.61 166.187 2076.6 158.08C2075.84 149.72 2074.32 143.133 2072.04 138.32C2069.76 133.507 2066.72 130.213 2062.92 128.44C2059.12 126.413 2054.18 125.4 2048.1 125.4C2042.27 125.4 2037.46 126.287 2033.66 128.06C2029.86 129.833 2026.82 133.127 2024.54 137.94C2022.26 142.753 2020.61 149.34 2019.6 157.7C2018.84 166.06 2018.46 176.827 2018.46 190C2018.46 203.173 2018.84 213.94 2019.6 222.3C2020.61 230.66 2022.26 237.247 2024.54 242.06C2026.82 246.873 2029.86 250.167 2033.66 251.94C2037.71 253.713 2042.65 254.6 2048.48 254.6ZM2193.84 323C2184.72 323 2178.89 321.48 2176.36 318.44C2174.08 315.4 2173.95 309.447 2175.98 300.58L2223.86 79.42C2225.38 72.58 2228.67 67.1333 2233.74 63.08C2238.81 59.0267 2244.76 57 2251.6 57H2352.68C2359.52 57 2365.47 59.0267 2370.54 63.08C2375.61 67.1333 2378.9 72.58 2380.42 79.42L2428.3 300.58C2430.33 309.447 2430.07 315.4 2427.54 318.44C2425.26 321.48 2419.56 323 2410.44 323H2362.94C2355.85 323 2350.65 321.733 2347.36 319.2C2344.07 316.667 2341.91 311.98 2340.9 305.14C2339.38 297.793 2337.1 292.98 2334.06 290.7C2331.02 288.42 2325.83 287.28 2318.48 287.28H2285.8C2278.45 287.28 2273.26 288.42 2270.22 290.7C2267.43 292.98 2265.28 297.793 2263.76 305.14C2261.99 311.98 2259.83 316.667 2257.3 319.2C2254.77 321.733 2249.45 323 2241.34 323H2193.84ZM2303.66 215.08C2315.57 215.08 2320.13 208.873 2317.34 196.46L2307.08 149.34C2306.32 145.793 2304.67 144.02 2302.14 144.02C2299.61 144.02 2297.96 145.793 2297.2 149.34L2287.32 196.46C2284.53 208.873 2288.97 215.08 2300.62 215.08H2303.66ZM2448.88 79.8C2448.88 72.96 2450.9 67.5133 2454.96 63.46C2459.26 59.1533 2464.84 57 2471.68 57H2573.52C2613.54 57 2643.44 67.5133 2663.2 88.54C2682.96 109.567 2692.84 143.387 2692.84 190C2692.84 236.613 2682.83 270.433 2662.82 291.46C2642.8 312.487 2612.02 323 2570.48 323H2471.68C2464.84 323 2459.26 320.973 2454.96 316.92C2450.9 312.613 2448.88 307.04 2448.88 300.2V79.8ZM2537.42 148.2V231.8C2537.42 239.147 2539.57 244.847 2543.88 248.9C2548.44 252.7 2554.26 254.6 2561.36 254.6C2569.72 254.6 2576.43 252.447 2581.5 248.14C2586.56 243.833 2590.49 238.387 2593.28 231.8C2596.32 225.213 2598.22 218.12 2598.98 210.52C2599.99 202.92 2600.5 195.953 2600.5 189.62C2600.5 183.287 2599.99 176.447 2598.98 169.1C2597.96 161.5 2596.06 154.533 2593.28 148.2C2590.49 141.613 2586.56 136.167 2581.5 131.86C2576.43 127.553 2569.72 125.4 2561.36 125.4C2554.26 125.4 2548.44 127.427 2543.88 131.48C2539.57 135.28 2537.42 140.853 2537.42 148.2ZM2734.13 323C2727.29 323 2721.72 320.973 2717.41 316.92C2713.36 312.613 2711.33 307.04 2711.33 300.2V79.8C2711.33 72.96 2713.36 67.5133 2717.41 63.46C2721.72 59.1533 2727.29 57 2734.13 57H2777.07C2783.91 57 2789.36 59.1533 2793.41 63.46C2797.72 67.5133 2799.87 72.96 2799.87 79.8V300.2C2799.87 307.04 2797.72 312.613 2793.41 316.92C2789.36 320.973 2783.91 323 2777.07 323H2734.13ZM3046.94 56.62C3053.78 56.62 3059.35 58.7733 3063.66 63.08C3067.96 67.3867 3070.12 72.96 3070.12 79.8V300.2C3070.12 307.04 3067.96 312.613 3063.66 316.92C3059.35 321.227 3053.78 323.38 3046.94 323.38H3004C2999.44 323.38 2995.51 323.127 2992.22 322.62C2988.92 321.86 2986.01 320.72 2983.48 319.2C2980.94 317.68 2978.54 315.653 2976.26 313.12C2973.98 310.587 2971.7 307.42 2969.42 303.62L2929.52 236.36C2927.24 233.067 2924.45 231.42 2921.16 231.42C2918.88 231.42 2916.85 232.307 2915.08 234.08C2913.3 235.6 2912.42 237.88 2912.42 240.92V300.2C2912.42 307.04 2910.26 312.613 2905.96 316.92C2901.65 321.227 2896.08 323.38 2889.24 323.38H2846.3C2839.46 323.38 2833.88 321.227 2829.58 316.92C2825.27 312.613 2823.12 307.04 2823.12 300.2V79.8C2823.12 72.96 2825.27 67.3867 2829.58 63.08C2833.88 58.7733 2839.46 56.62 2846.3 56.62H2897.22C2903.3 56.62 2907.73 57.5067 2910.52 59.28C2913.56 61.0533 2916.72 64.6 2920.02 69.92L2963.72 143.64C2966 146.933 2968.78 148.58 2972.08 148.58C2974.36 148.58 2976.38 147.82 2978.16 146.3C2979.93 144.527 2980.82 142.12 2980.82 139.08V79.8C2980.82 72.96 2982.97 67.3867 2987.28 63.08C2991.58 58.7733 2997.16 56.62 3004 56.62H3046.94ZM3326.31 193.04C3330.87 240.16 3323.52 274.233 3304.27 295.26C3285.02 316.287 3254.62 326.8 3213.07 326.8C3170.76 326.8 3139.48 315.653 3119.21 293.36C3098.94 271.067 3088.81 236.613 3088.81 190C3088.81 165.173 3091.09 144.147 3095.65 126.92C3100.21 109.44 3107.81 95.2533 3118.45 84.36C3129.34 73.4667 3143.66 65.6133 3161.39 60.8C3179.38 55.7333 3201.8 53.2 3228.65 53.2C3229.41 53.2 3232.45 53.2 3237.77 53.2C3243.09 53.2 3249.17 53.3267 3256.01 53.58C3263.1 53.58 3270.32 53.7067 3277.67 53.96C3285.02 53.96 3291.1 54.2133 3295.91 54.72C3304.02 55.2266 3309.84 57.5066 3313.39 61.56C3316.94 65.6133 3318.71 71.9467 3318.71 80.56V107.16C3318.71 115.267 3316.94 120.587 3313.39 123.12C3310.1 125.4 3304.27 126.54 3295.91 126.54H3230.17C3221.3 126.54 3213.83 127.3 3207.75 128.82C3201.67 130.087 3196.73 133 3192.93 137.56C3189.13 142.12 3186.34 148.58 3184.57 156.94C3182.8 165.3 3181.91 176.32 3181.91 190C3181.91 203.173 3182.29 213.94 3183.05 222.3C3184.06 230.66 3185.84 237.247 3188.37 242.06C3190.9 246.873 3194.2 250.167 3198.25 251.94C3202.56 253.713 3207.88 254.6 3214.21 254.6C3220.04 254.6 3224.72 253.713 3228.27 251.94C3232.07 250.167 3234.98 246.367 3237.01 240.54C3238.28 236.487 3237.77 233.193 3235.49 230.66C3233.46 227.873 3230.17 226.48 3225.61 226.48C3221.3 226.48 3217.76 225.213 3214.97 222.68C3212.44 219.893 3211.3 216.347 3211.55 212.04V177.08C3211.3 170.24 3213.32 164.793 3217.63 160.74C3221.94 156.433 3227.51 154.28 3234.35 154.28H3299.71C3306.55 154.28 3312.25 156.307 3316.81 160.36C3321.37 164.413 3324.03 169.86 3324.79 176.7L3326.31 193.04Z" fill="white"/>
<path d="M3395.51 186.485C3400.2 181.799 3407.8 181.799 3412.49 186.485L3445.51 219.515C3450.2 224.201 3450.2 231.799 3445.51 236.485L3412.49 269.515C3407.8 274.201 3400.2 274.201 3395.51 269.515L3362.49 236.485C3357.8 231.799 3357.8 224.201 3362.49 219.515L3395.51 186.485Z" fill="white"/>
<path d="M3632.08 250.8C3638.92 250.8 3644.37 252.953 3648.42 257.26C3652.73 261.313 3654.88 266.76 3654.88 273.6V300.2C3654.88 307.04 3652.73 312.613 3648.42 316.92C3644.37 320.973 3638.92 323 3632.08 323H3506.68C3499.84 323 3494.27 320.973 3489.96 316.92C3485.91 312.613 3483.88 307.04 3483.88 300.2V79.8C3483.88 72.96 3485.91 67.5133 3489.96 63.46C3494.27 59.1533 3499.84 57 3506.68 57H3549.62C3556.46 57 3561.91 59.1533 3565.96 63.46C3570.27 67.5133 3572.42 72.96 3572.42 79.8V228C3572.42 237.12 3573.94 243.2 3576.98 246.24C3580.02 249.28 3586.1 250.8 3595.22 250.8H3632.08ZM3785.1 326.8C3743.55 326.8 3712.64 315.653 3692.38 293.36C3672.36 271.067 3662.36 236.613 3662.36 190C3662.36 143.387 3672.36 108.933 3692.38 86.64C3712.64 64.3467 3743.55 53.2 3785.1 53.2C3826.9 53.2 3857.8 64.3467 3877.82 86.64C3898.08 108.68 3908.22 143.133 3908.22 190C3908.22 236.867 3898.08 271.447 3877.82 293.74C3857.8 315.78 3826.9 326.8 3785.1 326.8ZM3785.48 254.6C3791.3 254.6 3796.12 253.713 3799.92 251.94C3803.72 250.167 3806.76 246.873 3809.04 242.06C3811.32 237.247 3812.84 230.66 3813.6 222.3C3814.61 213.687 3815.12 202.667 3815.12 189.24C3815.12 176.573 3814.61 166.187 3813.6 158.08C3812.84 149.72 3811.32 143.133 3809.04 138.32C3806.76 133.507 3803.72 130.213 3799.92 128.44C3796.12 126.413 3791.18 125.4 3785.1 125.4C3779.27 125.4 3774.46 126.287 3770.66 128.06C3766.86 129.833 3763.82 133.127 3761.54 137.94C3759.26 142.753 3757.61 149.34 3756.6 157.7C3755.84 166.06 3755.46 176.827 3755.46 190C3755.46 203.173 3755.84 213.94 3756.6 222.3C3757.61 230.66 3759.26 237.247 3761.54 242.06C3763.82 246.873 3766.86 250.167 3770.66 251.94C3774.71 253.713 3779.65 254.6 3785.48 254.6ZM3930.84 323C3921.72 323 3915.89 321.48 3913.36 318.44C3911.08 315.4 3910.95 309.447 3912.98 300.58L3960.86 79.42C3962.38 72.58 3965.67 67.1333 3970.74 63.08C3975.81 59.0267 3981.76 57 3988.6 57H4089.68C4096.52 57 4102.47 59.0267 4107.54 63.08C4112.61 67.1333 4115.9 72.58 4117.42 79.42L4165.3 300.58C4167.33 309.447 4167.07 315.4 4164.54 318.44C4162.26 321.48 4156.56 323 4147.44 323H4099.94C4092.85 323 4087.65 321.733 4084.36 319.2C4081.07 316.667 4078.91 311.98 4077.9 305.14C4076.38 297.793 4074.1 292.98 4071.06 290.7C4068.02 288.42 4062.83 287.28 4055.48 287.28H4022.8C4015.45 287.28 4010.26 288.42 4007.22 290.7C4004.43 292.98 4002.28 297.793 4000.76 305.14C3998.99 311.98 3996.83 316.667 3994.3 319.2C3991.77 321.733 3986.45 323 3978.34 323H3930.84ZM4040.66 215.08C4052.57 215.08 4057.13 208.873 4054.34 196.46L4044.08 149.34C4043.32 145.793 4041.67 144.02 4039.14 144.02C4036.61 144.02 4034.96 145.793 4034.2 149.34L4024.32 196.46C4021.53 208.873 4025.97 215.08 4037.62 215.08H4040.66ZM4185.88 79.8C4185.88 72.96 4187.9 67.5133 4191.96 63.46C4196.26 59.1533 4201.84 57 4208.68 57H4310.52C4350.54 57 4380.44 67.5133 4400.2 88.54C4419.96 109.567 4429.84 143.387 4429.84 190C4429.84 236.613 4419.83 270.433 4399.82 291.46C4379.8 312.487 4349.02 323 4307.48 323H4208.68C4201.84 323 4196.26 320.973 4191.96 316.92C4187.9 312.613 4185.88 307.04 4185.88 300.2V79.8ZM4274.42 148.2V231.8C4274.42 239.147 4276.57 244.847 4280.88 248.9C4285.44 252.7 4291.26 254.6 4298.36 254.6C4306.72 254.6 4313.43 252.447 4318.5 248.14C4323.56 243.833 4327.49 238.387 4330.28 231.8C4333.32 225.213 4335.22 218.12 4335.98 210.52C4336.99 202.92 4337.5 195.953 4337.5 189.62C4337.5 183.287 4336.99 176.447 4335.98 169.1C4334.96 161.5 4333.06 154.533 4330.28 148.2C4327.49 141.613 4323.56 136.167 4318.5 131.86C4313.43 127.553 4306.72 125.4 4298.36 125.4C4291.26 125.4 4285.44 127.427 4280.88 131.48C4276.57 135.28 4274.42 140.853 4274.42 148.2ZM4471.13 323C4464.29 323 4458.72 320.973 4454.41 316.92C4450.36 312.613 4448.33 307.04 4448.33 300.2V79.8C4448.33 72.96 4450.36 67.5133 4454.41 63.46C4458.72 59.1533 4464.29 57 4471.13 57H4514.07C4520.91 57 4526.36 59.1533 4530.41 63.46C4534.72 67.5133 4536.87 72.96 4536.87 79.8V300.2C4536.87 307.04 4534.72 312.613 4530.41 316.92C4526.36 320.973 4520.91 323 4514.07 323H4471.13ZM4783.94 56.62C4790.78 56.62 4796.35 58.7733 4800.66 63.08C4804.96 67.3867 4807.12 72.96 4807.12 79.8V300.2C4807.12 307.04 4804.96 312.613 4800.66 316.92C4796.35 321.227 4790.78 323.38 4783.94 323.38H4741C4736.44 323.38 4732.51 323.127 4729.22 322.62C4725.92 321.86 4723.01 320.72 4720.48 319.2C4717.94 317.68 4715.54 315.653 4713.26 313.12C4710.98 310.587 4708.7 307.42 4706.42 303.62L4666.52 236.36C4664.24 233.067 4661.45 231.42 4658.16 231.42C4655.88 231.42 4653.85 232.307 4652.08 234.08C4650.3 235.6 4649.42 237.88 4649.42 240.92V300.2C4649.42 307.04 4647.26 312.613 4642.96 316.92C4638.65 321.227 4633.08 323.38 4626.24 323.38H4583.3C4576.46 323.38 4570.88 321.227 4566.58 316.92C4562.27 312.613 4560.12 307.04 4560.12 300.2V79.8C4560.12 72.96 4562.27 67.3867 4566.58 63.08C4570.88 58.7733 4576.46 56.62 4583.3 56.62H4634.22C4640.3 56.62 4644.73 57.5067 4647.52 59.28C4650.56 61.0533 4653.72 64.6 4657.02 69.92L4700.72 143.64C4703 146.933 4705.78 148.58 4709.08 148.58C4711.36 148.58 4713.38 147.82 4715.16 146.3C4716.93 144.527 4717.82 142.12 4717.82 139.08V79.8C4717.82 72.96 4719.97 67.3867 4724.28 63.08C4728.58 58.7733 4734.16 56.62 4741 56.62H4783.94ZM5063.31 193.04C5067.87 240.16 5060.52 274.233 5041.27 295.26C5022.02 316.287 4991.62 326.8 4950.07 326.8C4907.76 326.8 4876.48 315.653 4856.21 293.36C4835.94 271.067 4825.81 236.613 4825.81 190C4825.81 165.173 4828.09 144.147 4832.65 126.92C4837.21 109.44 4844.81 95.2533 4855.45 84.36C4866.34 73.4667 4880.66 65.6133 4898.39 60.8C4916.38 55.7333 4938.8 53.2 4965.65 53.2C4966.41 53.2 4969.45 53.2 4974.77 53.2C4980.09 53.2 4986.17 53.3267 4993.01 53.58C5000.1 53.58 5007.32 53.7067 5014.67 53.96C5022.02 53.96 5028.1 54.2133 5032.91 54.72C5041.02 55.2266 5046.84 57.5066 5050.39 61.56C5053.94 65.6133 5055.71 71.9467 5055.71 80.56V107.16C5055.71 115.267 5053.94 120.587 5050.39 123.12C5047.1 125.4 5041.27 126.54 5032.91 126.54H4967.17C4958.3 126.54 4950.83 127.3 4944.75 128.82C4938.67 130.087 4933.73 133 4929.93 137.56C4926.13 142.12 4923.34 148.58 4921.57 156.94C4919.8 165.3 4918.91 176.32 4918.91 190C4918.91 203.173 4919.29 213.94 4920.05 222.3C4921.06 230.66 4922.84 237.247 4925.37 242.06C4927.9 246.873 4931.2 250.167 4935.25 251.94C4939.56 253.713 4944.88 254.6 4951.21 254.6C4957.04 254.6 4961.72 253.713 4965.27 251.94C4969.07 250.167 4971.98 246.367 4974.01 240.54C4975.28 236.487 4974.77 233.193 4972.49 230.66C4970.46 227.873 4967.17 226.48 4962.61 226.48C4958.3 226.48 4954.76 225.213 4951.97 222.68C4949.44 219.893 4948.3 216.347 4948.55 212.04V177.08C4948.3 170.24 4950.32 164.793 4954.63 160.74C4958.94 156.433 4964.51 154.28 4971.35 154.28H5036.71C5043.55 154.28 5049.25 156.307 5053.81 160.36C5058.37 164.413 5061.03 169.86 5061.79 176.7L5063.31 193.04Z" fill="white"/>
<path d="M5132.51 186.485C5137.2 181.799 5144.8 181.799 5149.49 186.485L5182.51 219.515C5187.2 224.201 5187.2 231.799 5182.51 236.485L5149.49 269.515C5144.8 274.201 5137.2 274.201 5132.51 269.515L5099.49 236.485C5094.8 231.799 5094.8 224.201 5099.49 219.515L5132.51 186.485Z" fill="white"/>
<path d="M5369.08 250.8C5375.92 250.8 5381.37 252.953 5385.42 257.26C5389.73 261.313 5391.88 266.76 5391.88 273.6V300.2C5391.88 307.04 5389.73 312.613 5385.42 316.92C5381.37 320.973 5375.92 323 5369.08 323H5243.68C5236.84 323 5231.27 320.973 5226.96 316.92C5222.91 312.613 5220.88 307.04 5220.88 300.2V79.8C5220.88 72.96 5222.91 67.5133 5226.96 63.46C5231.27 59.1533 5236.84 57 5243.68 57H5286.62C5293.46 57 5298.91 59.1533 5302.96 63.46C5307.27 67.5133 5309.42 72.96 5309.42 79.8V228C5309.42 237.12 5310.94 243.2 5313.98 246.24C5317.02 249.28 5323.1 250.8 5332.22 250.8H5369.08ZM5522.1 326.8C5480.55 326.8 5449.64 315.653 5429.38 293.36C5409.36 271.067 5399.36 236.613 5399.36 190C5399.36 143.387 5409.36 108.933 5429.38 86.64C5449.64 64.3467 5480.55 53.2 5522.1 53.2C5563.9 53.2 5594.8 64.3467 5614.82 86.64C5635.08 108.68 5645.22 143.133 5645.22 190C5645.22 236.867 5635.08 271.447 5614.82 293.74C5594.8 315.78 5563.9 326.8 5522.1 326.8ZM5522.48 254.6C5528.3 254.6 5533.12 253.713 5536.92 251.94C5540.72 250.167 5543.76 246.873 5546.04 242.06C5548.32 237.247 5549.84 230.66 5550.6 222.3C5551.61 213.687 5552.12 202.667 5552.12 189.24C5552.12 176.573 5551.61 166.187 5550.6 158.08C5549.84 149.72 5548.32 143.133 5546.04 138.32C5543.76 133.507 5540.72 130.213 5536.92 128.44C5533.12 126.413 5528.18 125.4 5522.1 125.4C5516.27 125.4 5511.46 126.287 5507.66 128.06C5503.86 129.833 5500.82 133.127 5498.54 137.94C5496.26 142.753 5494.61 149.34 5493.6 157.7C5492.84 166.06 5492.46 176.827 5492.46 190C5492.46 203.173 5492.84 213.94 5493.6 222.3C5494.61 230.66 5496.26 237.247 5498.54 242.06C5500.82 246.873 5503.86 250.167 5507.66 251.94C5511.71 253.713 5516.65 254.6 5522.48 254.6ZM5667.84 323C5658.72 323 5652.89 321.48 5650.36 318.44C5648.08 315.4 5647.95 309.447 5649.98 300.58L5697.86 79.42C5699.38 72.58 5702.67 67.1333 5707.74 63.08C5712.81 59.0267 5718.76 57 5725.6 57H5826.68C5833.52 57 5839.47 59.0267 5844.54 63.08C5849.61 67.1333 5852.9 72.58 5854.42 79.42L5902.3 300.58C5904.33 309.447 5904.07 315.4 5901.54 318.44C5899.26 321.48 5893.56 323 5884.44 323H5836.94C5829.85 323 5824.65 321.733 5821.36 319.2C5818.07 316.667 5815.91 311.98 5814.9 305.14C5813.38 297.793 5811.1 292.98 5808.06 290.7C5805.02 288.42 5799.83 287.28 5792.48 287.28H5759.8C5752.45 287.28 5747.26 288.42 5744.22 290.7C5741.43 292.98 5739.28 297.793 5737.76 305.14C5735.99 311.98 5733.83 316.667 5731.3 319.2C5728.77 321.733 5723.45 323 5715.34 323H5667.84ZM5777.66 215.08C5789.57 215.08 5794.13 208.873 5791.34 196.46L5781.08 149.34C5780.32 145.793 5778.67 144.02 5776.14 144.02C5773.61 144.02 5771.96 145.793 5771.2 149.34L5761.32 196.46C5758.53 208.873 5762.97 215.08 5774.62 215.08H5777.66ZM5922.88 79.8C5922.88 72.96 5924.9 67.5133 5928.96 63.46C5933.26 59.1533 5938.84 57 5945.68 57H6047.52C6087.54 57 6117.44 67.5133 6137.2 88.54C6156.96 109.567 6166.84 143.387 6166.84 190C6166.84 236.613 6156.83 270.433 6136.82 291.46C6116.8 312.487 6086.02 323 6044.48 323H5945.68C5938.84 323 5933.26 320.973 5928.96 316.92C5924.9 312.613 5922.88 307.04 5922.88 300.2V79.8ZM6011.42 148.2V231.8C6011.42 239.147 6013.57 244.847 6017.88 248.9C6022.44 252.7 6028.26 254.6 6035.36 254.6C6043.72 254.6 6050.43 252.447 6055.5 248.14C6060.56 243.833 6064.49 238.387 6067.28 231.8C6070.32 225.213 6072.22 218.12 6072.98 210.52C6073.99 202.92 6074.5 195.953 6074.5 189.62C6074.5 183.287 6073.99 176.447 6072.98 169.1C6071.96 161.5 6070.06 154.533 6067.28 148.2C6064.49 141.613 6060.56 136.167 6055.5 131.86C6050.43 127.553 6043.72 125.4 6035.36 125.4C6028.26 125.4 6022.44 127.427 6017.88 131.48C6013.57 135.28 6011.42 140.853 6011.42 148.2ZM6208.13 323C6201.29 323 6195.72 320.973 6191.41 316.92C6187.36 312.613 6185.33 307.04 6185.33 300.2V79.8C6185.33 72.96 6187.36 67.5133 6191.41 63.46C6195.72 59.1533 6201.29 57 6208.13 57H6251.07C6257.91 57 6263.36 59.1533 6267.41 63.46C6271.72 67.5133 6273.87 72.96 6273.87 79.8V300.2C6273.87 307.04 6271.72 312.613 6267.41 316.92C6263.36 320.973 6257.91 323 6251.07 323H6208.13ZM6520.94 56.62C6527.78 56.62 6533.35 58.7733 6537.66 63.08C6541.96 67.3867 6544.12 72.96 6544.12 79.8V300.2C6544.12 307.04 6541.96 312.613 6537.66 316.92C6533.35 321.227 6527.78 323.38 6520.94 323.38H6478C6473.44 323.38 6469.51 323.127 6466.22 322.62C6462.92 321.86 6460.01 320.72 6457.48 319.2C6454.94 317.68 6452.54 315.653 6450.26 313.12C6447.98 310.587 6445.7 307.42 6443.42 303.62L6403.52 236.36C6401.24 233.067 6398.45 231.42 6395.16 231.42C6392.88 231.42 6390.85 232.307 6389.08 234.08C6387.3 235.6 6386.42 237.88 6386.42 240.92V300.2C6386.42 307.04 6384.26 312.613 6379.96 316.92C6375.65 321.227 6370.08 323.38 6363.24 323.38H6320.3C6313.46 323.38 6307.88 321.227 6303.58 316.92C6299.27 312.613 6297.12 307.04 6297.12 300.2V79.8C6297.12 72.96 6299.27 67.3867 6303.58 63.08C6307.88 58.7733 6313.46 56.62 6320.3 56.62H6371.22C6377.3 56.62 6381.73 57.5067 6384.52 59.28C6387.56 61.0533 6390.72 64.6 6394.02 69.92L6437.72 143.64C6440 146.933 6442.78 148.58 6446.08 148.58C6448.36 148.58 6450.38 147.82 6452.16 146.3C6453.93 144.527 6454.82 142.12 6454.82 139.08V79.8C6454.82 72.96 6456.97 67.3867 6461.28 63.08C6465.58 58.7733 6471.16 56.62 6478 56.62H6520.94ZM6800.31 193.04C6804.87 240.16 6797.52 274.233 6778.27 295.26C6759.02 316.287 6728.62 326.8 6687.07 326.8C6644.76 326.8 6613.48 315.653 6593.21 293.36C6572.94 271.067 6562.81 236.613 6562.81 190C6562.81 165.173 6565.09 144.147 6569.65 126.92C6574.21 109.44 6581.81 95.2533 6592.45 84.36C6603.34 73.4667 6617.66 65.6133 6635.39 60.8C6653.38 55.7333 6675.8 53.2 6702.65 53.2C6703.41 53.2 6706.45 53.2 6711.77 53.2C6717.09 53.2 6723.17 53.3267 6730.01 53.58C6737.1 53.58 6744.32 53.7067 6751.67 53.96C6759.02 53.96 6765.1 54.2133 6769.91 54.72C6778.02 55.2266 6783.84 57.5066 6787.39 61.56C6790.94 65.6133 6792.71 71.9467 6792.71 80.56V107.16C6792.71 115.267 6790.94 120.587 6787.39 123.12C6784.1 125.4 6778.27 126.54 6769.91 126.54H6704.17C6695.3 126.54 6687.83 127.3 6681.75 128.82C6675.67 130.087 6670.73 133 6666.93 137.56C6663.13 142.12 6660.34 148.58 6658.57 156.94C6656.8 165.3 6655.91 176.32 6655.91 190C6655.91 203.173 6656.29 213.94 6657.05 222.3C6658.06 230.66 6659.84 237.247 6662.37 242.06C6664.9 246.873 6668.2 250.167 6672.25 251.94C6676.56 253.713 6681.88 254.6 6688.21 254.6C6694.04 254.6 6698.72 253.713 6702.27 251.94C6706.07 250.167 6708.98 246.367 6711.01 240.54C6712.28 236.487 6711.77 233.193 6709.49 230.66C6707.46 227.873 6704.17 226.48 6699.61 226.48C6695.3 226.48 6691.76 225.213 6688.97 222.68C6686.44 219.893 6685.3 216.347 6685.55 212.04V177.08C6685.3 170.24 6687.32 164.793 6691.63 160.74C6695.94 156.433 6701.51 154.28 6708.35 154.28H6773.71C6780.55 154.28 6786.25 156.307 6790.81 160.36C6795.37 164.413 6798.03 169.86 6798.79 176.7L6800.31 193.04Z" fill="white"/>
<path d="M6869.51 186.485C6874.2 181.799 6881.8 181.799 6886.49 186.485L6919.51 219.515C6924.2 224.201 6924.2 231.799 6919.51 236.485L6886.49 269.515C6881.8 274.201 6874.2 274.201 6869.51 269.515L6836.49 236.485C6831.8 231.799 6831.8 224.201 6836.49 219.515L6869.51 186.485Z" fill="white"/>
<path d="M7106.08 250.8C7112.92 250.8 7118.37 252.953 7122.42 257.26C7126.73 261.313 7128.88 266.76 7128.88 273.6V300.2C7128.88 307.04 7126.73 312.613 7122.42 316.92C7118.37 320.973 7112.92 323 7106.08 323H6980.68C6973.84 323 6968.27 320.973 6963.96 316.92C6959.91 312.613 6957.88 307.04 6957.88 300.2V79.8C6957.88 72.96 6959.91 67.5133 6963.96 63.46C6968.27 59.1533 6973.84 57 6980.68 57H7023.62C7030.46 57 7035.91 59.1533 7039.96 63.46C7044.27 67.5133 7046.42 72.96 7046.42 79.8V228C7046.42 237.12 7047.94 243.2 7050.98 246.24C7054.02 249.28 7060.1 250.8 7069.22 250.8H7106.08ZM7259.1 326.8C7217.55 326.8 7186.64 315.653 7166.38 293.36C7146.36 271.067 7136.36 236.613 7136.36 190C7136.36 143.387 7146.36 108.933 7166.38 86.64C7186.64 64.3467 7217.55 53.2 7259.1 53.2C7300.9 53.2 7331.8 64.3467 7351.82 86.64C7372.08 108.68 7382.22 143.133 7382.22 190C7382.22 236.867 7372.08 271.447 7351.82 293.74C7331.8 315.78 7300.9 326.8 7259.1 326.8ZM7259.48 254.6C7265.3 254.6 7270.12 253.713 7273.92 251.94C7277.72 250.167 7280.76 246.873 7283.04 242.06C7285.32 237.247 7286.84 230.66 7287.6 222.3C7288.61 213.687 7289.12 202.667 7289.12 189.24C7289.12 176.573 7288.61 166.187 7287.6 158.08C7286.84 149.72 7285.32 143.133 7283.04 138.32C7280.76 133.507 7277.72 130.213 7273.92 128.44C7270.12 126.413 7265.18 125.4 7259.1 125.4C7253.27 125.4 7248.46 126.287 7244.66 128.06C7240.86 129.833 7237.82 133.127 7235.54 137.94C7233.26 142.753 7231.61 149.34 7230.6 157.7C7229.84 166.06 7229.46 176.827 7229.46 190C7229.46 203.173 7229.84 213.94 7230.6 222.3C7231.61 230.66 7233.26 237.247 7235.54 242.06C7237.82 246.873 7240.86 250.167 7244.66 251.94C7248.71 253.713 7253.65 254.6 7259.48 254.6ZM7404.84 323C7395.72 323 7389.89 321.48 7387.36 318.44C7385.08 315.4 7384.95 309.447 7386.98 300.58L7434.86 79.42C7436.38 72.58 7439.67 67.1333 7444.74 63.08C7449.81 59.0267 7455.76 57 7462.6 57H7563.68C7570.52 57 7576.47 59.0267 7581.54 63.08C7586.61 67.1333 7589.9 72.58 7591.42 79.42L7639.3 300.58C7641.33 309.447 7641.07 315.4 7638.54 318.44C7636.26 321.48 7630.56 323 7621.44 323H7573.94C7566.85 323 7561.65 321.733 7558.36 319.2C7555.07 316.667 7552.91 311.98 7551.9 305.14C7550.38 297.793 7548.1 292.98 7545.06 290.7C7542.02 288.42 7536.83 287.28 7529.48 287.28H7496.8C7489.45 287.28 7484.26 288.42 7481.22 290.7C7478.43 292.98 7476.28 297.793 7474.76 305.14C7472.99 311.98 7470.83 316.667 7468.3 319.2C7465.77 321.733 7460.45 323 7452.34 323H7404.84ZM7514.66 215.08C7526.57 215.08 7531.13 208.873 7528.34 196.46L7518.08 149.34C7517.32 145.793 7515.67 144.02 7513.14 144.02C7510.61 144.02 7508.96 145.793 7508.2 149.34L7498.32 196.46C7495.53 208.873 7499.97 215.08 7511.62 215.08H7514.66ZM7659.88 79.8C7659.88 72.96 7661.9 67.5133 7665.96 63.46C7670.26 59.1533 7675.84 57 7682.68 57H7784.52C7824.54 57 7854.44 67.5133 7874.2 88.54C7893.96 109.567 7903.84 143.387 7903.84 190C7903.84 236.613 7893.83 270.433 7873.82 291.46C7853.8 312.487 7823.02 323 7781.48 323H7682.68C7675.84 323 7670.26 320.973 7665.96 316.92C7661.9 312.613 7659.88 307.04 7659.88 300.2V79.8ZM7748.42 148.2V231.8C7748.42 239.147 7750.57 244.847 7754.88 248.9C7759.44 252.7 7765.26 254.6 7772.36 254.6C7780.72 254.6 7787.43 252.447 7792.5 248.14C7797.56 243.833 7801.49 238.387 7804.28 231.8C7807.32 225.213 7809.22 218.12 7809.98 210.52C7810.99 202.92 7811.5 195.953 7811.5 189.62C7811.5 183.287 7810.99 176.447 7809.98 169.1C7808.96 161.5 7807.06 154.533 7804.28 148.2C7801.49 141.613 7797.56 136.167 7792.5 131.86C7787.43 127.553 7780.72 125.4 7772.36 125.4C7765.26 125.4 7759.44 127.427 7754.88 131.48C7750.57 135.28 7748.42 140.853 7748.42 148.2ZM7945.13 323C7938.29 323 7932.72 320.973 7928.41 316.92C7924.36 312.613 7922.33 307.04 7922.33 300.2V79.8C7922.33 72.96 7924.36 67.5133 7928.41 63.46C7932.72 59.1533 7938.29 57 7945.13 57H7988.07C7994.91 57 8000.36 59.1533 8004.41 63.46C8008.72 67.5133 8010.87 72.96 8010.87 79.8V300.2C8010.87 307.04 8008.72 312.613 8004.41 316.92C8000.36 320.973 7994.91 323 7988.07 323H7945.13ZM8257.94 56.62C8264.78 56.62 8270.35 58.7733 8274.66 63.08C8278.96 67.3867 8281.12 72.96 8281.12 79.8V300.2C8281.12 307.04 8278.96 312.613 8274.66 316.92C8270.35 321.227 8264.78 323.38 8257.94 323.38H8215C8210.44 323.38 8206.51 323.127 8203.22 322.62C8199.92 321.86 8197.01 320.72 8194.48 319.2C8191.94 317.68 8189.54 315.653 8187.26 313.12C8184.98 310.587 8182.7 307.42 8180.42 303.62L8140.52 236.36C8138.24 233.067 8135.45 231.42 8132.16 231.42C8129.88 231.42 8127.85 232.307 8126.08 234.08C8124.3 235.6 8123.42 237.88 8123.42 240.92V300.2C8123.42 307.04 8121.26 312.613 8116.96 316.92C8112.65 321.227 8107.08 323.38 8100.24 323.38H8057.3C8050.46 323.38 8044.88 321.227 8040.58 316.92C8036.27 312.613 8034.12 307.04 8034.12 300.2V79.8C8034.12 72.96 8036.27 67.3867 8040.58 63.08C8044.88 58.7733 8050.46 56.62 8057.3 56.62H8108.22C8114.3 56.62 8118.73 57.5067 8121.52 59.28C8124.56 61.0533 8127.72 64.6 8131.02 69.92L8174.72 143.64C8177 146.933 8179.78 148.58 8183.08 148.58C8185.36 148.58 8187.38 147.82 8189.16 146.3C8190.93 144.527 8191.82 142.12 8191.82 139.08V79.8C8191.82 72.96 8193.97 67.3867 8198.28 63.08C8202.58 58.7733 8208.16 56.62 8215 56.62H8257.94ZM8537.31 193.04C8541.87 240.16 8534.52 274.233 8515.27 295.26C8496.02 316.287 8465.62 326.8 8424.07 326.8C8381.76 326.8 8350.48 315.653 8330.21 293.36C8309.94 271.067 8299.81 236.613 8299.81 190C8299.81 165.173 8302.09 144.147 8306.65 126.92C8311.21 109.44 8318.81 95.2533 8329.45 84.36C8340.34 73.4667 8354.66 65.6133 8372.39 60.8C8390.38 55.7333 8412.8 53.2 8439.65 53.2C8440.41 53.2 8443.45 53.2 8448.77 53.2C8454.09 53.2 8460.17 53.3267 8467.01 53.58C8474.1 53.58 8481.32 53.7067 8488.67 53.96C8496.02 53.96 8502.1 54.2133 8506.91 54.72C8515.02 55.2266 8520.84 57.5066 8524.39 61.56C8527.94 65.6133 8529.71 71.9467 8529.71 80.56V107.16C8529.71 115.267 8527.94 120.587 8524.39 123.12C8521.1 125.4 8515.27 126.54 8506.91 126.54H8441.17C8432.3 126.54 8424.83 127.3 8418.75 128.82C8412.67 130.087 8407.73 133 8403.93 137.56C8400.13 142.12 8397.34 148.58 8395.57 156.94C8393.8 165.3 8392.91 176.32 8392.91 190C8392.91 203.173 8393.29 213.94 8394.05 222.3C8395.06 230.66 8396.84 237.247 8399.37 242.06C8401.9 246.873 8405.2 250.167 8409.25 251.94C8413.56 253.713 8418.88 254.6 8425.21 254.6C8431.04 254.6 8435.72 253.713 8439.27 251.94C8443.07 250.167 8445.98 246.367 8448.01 240.54C8449.28 236.487 8448.77 233.193 8446.49 230.66C8444.46 227.873 8441.17 226.48 8436.61 226.48C8432.3 226.48 8428.76 225.213 8425.97 222.68C8423.44 219.893 8422.3 216.347 8422.55 212.04V177.08C8422.3 170.24 8424.32 164.793 8428.63 160.74C8432.94 156.433 8438.51 154.28 8445.35 154.28H8510.71C8517.55 154.28 8523.25 156.307 8527.81 160.36C8532.37 164.413 8535.03 169.86 8535.79 176.7L8537.31 193.04Z" fill="white"/>
<path d="M8606.51 186.485C8611.2 181.799 8618.8 181.799 8623.49 186.485L8656.51 219.515C8661.2 224.201 8661.2 231.799 8656.51 236.485L8623.49 269.515C8618.8 274.201 8611.2 274.201 8606.51 269.515L8573.49 236.485C8568.8 231.799 8568.8 224.201 8573.49 219.515L8606.51 186.485Z" fill="white"/>
<path d="M8843.08 250.8C8849.92 250.8 8855.37 252.953 8859.42 257.26C8863.73 261.313 8865.88 266.76 8865.88 273.6V300.2C8865.88 307.04 8863.73 312.613 8859.42 316.92C8855.37 320.973 8849.92 323 8843.08 323H8717.68C8710.84 323 8705.27 320.973 8700.96 316.92C8696.91 312.613 8694.88 307.04 8694.88 300.2V79.8C8694.88 72.96 8696.91 67.5133 8700.96 63.46C8705.27 59.1533 8710.84 57 8717.68 57H8760.62C8767.46 57 8772.91 59.1533 8776.96 63.46C8781.27 67.5133 8783.42 72.96 8783.42 79.8V228C8783.42 237.12 8784.94 243.2 8787.98 246.24C8791.02 249.28 8797.1 250.8 8806.22 250.8H8843.08ZM8996.1 326.8C8954.55 326.8 8923.64 315.653 8903.38 293.36C8883.36 271.067 8873.36 236.613 8873.36 190C8873.36 143.387 8883.36 108.933 8903.38 86.64C8923.64 64.3467 8954.55 53.2 8996.1 53.2C9037.9 53.2 9068.8 64.3467 9088.82 86.64C9109.08 108.68 9119.22 143.133 9119.22 190C9119.22 236.867 9109.08 271.447 9088.82 293.74C9068.8 315.78 9037.9 326.8 8996.1 326.8ZM8996.48 254.6C9002.3 254.6 9007.12 253.713 9010.92 251.94C9014.72 250.167 9017.76 246.873 9020.04 242.06C9022.32 237.247 9023.84 230.66 9024.6 222.3C9025.61 213.687 9026.12 202.667 9026.12 189.24C9026.12 176.573 9025.61 166.187 9024.6 158.08C9023.84 149.72 9022.32 143.133 9020.04 138.32C9017.76 133.507 9014.72 130.213 9010.92 128.44C9007.12 126.413 9002.18 125.4 8996.1 125.4C8990.27 125.4 8985.46 126.287 8981.66 128.06C8977.86 129.833 8974.82 133.127 8972.54 137.94C8970.26 142.753 8968.61 149.34 8967.6 157.7C8966.84 166.06 8966.46 176.827 8966.46 190C8966.46 203.173 8966.84 213.94 8967.6 222.3C8968.61 230.66 8970.26 237.247 8972.54 242.06C8974.82 246.873 8977.86 250.167 8981.66 251.94C8985.71 253.713 8990.65 254.6 8996.48 254.6ZM9141.84 323C9132.72 323 9126.89 321.48 9124.36 318.44C9122.08 315.4 9121.95 309.447 9123.98 300.58L9171.86 79.42C9173.38 72.58 9176.67 67.1333 9181.74 63.08C9186.81 59.0267 9192.76 57 9199.6 57H9300.68C9307.52 57 9313.47 59.0267 9318.54 63.08C9323.61 67.1333 9326.9 72.58 9328.42 79.42L9376.3 300.58C9378.33 309.447 9378.07 315.4 9375.54 318.44C9373.26 321.48 9367.56 323 9358.44 323H9310.94C9303.85 323 9298.65 321.733 9295.36 319.2C9292.07 316.667 9289.91 311.98 9288.9 305.14C9287.38 297.793 9285.1 292.98 9282.06 290.7C9279.02 288.42 9273.83 287.28 9266.48 287.28H9233.8C9226.45 287.28 9221.26 288.42 9218.22 290.7C9215.43 292.98 9213.28 297.793 9211.76 305.14C9209.99 311.98 9207.83 316.667 9205.3 319.2C9202.77 321.733 9197.45 323 9189.34 323H9141.84ZM9251.66 215.08C9263.57 215.08 9268.13 208.873 9265.34 196.46L9255.08 149.34C9254.32 145.793 9252.67 144.02 9250.14 144.02C9247.61 144.02 9245.96 145.793 9245.2 149.34L9235.32 196.46C9232.53 208.873 9236.97 215.08 9248.62 215.08H9251.66ZM9396.88 79.8C9396.88 72.96 9398.9 67.5133 9402.96 63.46C9407.26 59.1533 9412.84 57 9419.68 57H9521.52C9561.54 57 9591.44 67.5133 9611.2 88.54C9630.96 109.567 9640.84 143.387 9640.84 190C9640.84 236.613 9630.83 270.433 9610.82 291.46C9590.8 312.487 9560.02 323 9518.48 323H9419.68C9412.84 323 9407.26 320.973 9402.96 316.92C9398.9 312.613 9396.88 307.04 9396.88 300.2V79.8ZM9485.42 148.2V231.8C9485.42 239.147 9487.57 244.847 9491.88 248.9C9496.44 252.7 9502.26 254.6 9509.36 254.6C9517.72 254.6 9524.43 252.447 9529.5 248.14C9534.56 243.833 9538.49 238.387 9541.28 231.8C9544.32 225.213 9546.22 218.12 9546.98 210.52C9547.99 202.92 9548.5 195.953 9548.5 189.62C9548.5 183.287 9547.99 176.447 9546.98 169.1C9545.96 161.5 9544.06 154.533 9541.28 148.2C9538.49 141.613 9534.56 136.167 9529.5 131.86C9524.43 127.553 9517.72 125.4 9509.36 125.4C9502.26 125.4 9496.44 127.427 9491.88 131.48C9487.57 135.28 9485.42 140.853 9485.42 148.2ZM9682.13 323C9675.29 323 9669.72 320.973 9665.41 316.92C9661.36 312.613 9659.33 307.04 9659.33 300.2V79.8C9659.33 72.96 9661.36 67.5133 9665.41 63.46C9669.72 59.1533 9675.29 57 9682.13 57H9725.07C9731.91 57 9737.36 59.1533 9741.41 63.46C9745.72 67.5133 9747.87 72.96 9747.87 79.8V300.2C9747.87 307.04 9745.72 312.613 9741.41 316.92C9737.36 320.973 9731.91 323 9725.07 323H9682.13ZM9994.94 56.62C10001.8 56.62 10007.4 58.7733 10011.7 63.08C10016 67.3867 10018.1 72.96 10018.1 79.8V300.2C10018.1 307.04 10016 312.613 10011.7 316.92C10007.4 321.227 10001.8 323.38 9994.94 323.38H9952C9947.44 323.38 9943.51 323.127 9940.22 322.62C9936.92 321.86 9934.01 320.72 9931.48 319.2C9928.94 317.68 9926.54 315.653 9924.26 313.12C9921.98 310.587 9919.7 307.42 9917.42 303.62L9877.52 236.36C9875.24 233.067 9872.45 231.42 9869.16 231.42C9866.88 231.42 9864.85 232.307 9863.08 234.08C9861.3 235.6 9860.42 237.88 9860.42 240.92V300.2C9860.42 307.04 9858.26 312.613 9853.96 316.92C9849.65 321.227 9844.08 323.38 9837.24 323.38H9794.3C9787.46 323.38 9781.88 321.227 9777.58 316.92C9773.27 312.613 9771.12 307.04 9771.12 300.2V79.8C9771.12 72.96 9773.27 67.3867 9777.58 63.08C9781.88 58.7733 9787.46 56.62 9794.3 56.62H9845.22C9851.3 56.62 9855.73 57.5067 9858.52 59.28C9861.56 61.0533 9864.72 64.6 9868.02 69.92L9911.72 143.64C9914 146.933 9916.78 148.58 9920.08 148.58C9922.36 148.58 9924.38 147.82 9926.16 146.3C9927.93 144.527 9928.82 142.12 9928.82 139.08V79.8C9928.82 72.96 9930.97 67.3867 9935.28 63.08C9939.58 58.7733 9945.16 56.62 9952 56.62H9994.94ZM10274.3 193.04C10278.9 240.16 10271.5 274.233 10252.3 295.26C10233 316.287 10202.6 326.8 10161.1 326.8C10118.8 326.8 10087.5 315.653 10067.2 293.36C10046.9 271.067 10036.8 236.613 10036.8 190C10036.8 165.173 10039.1 144.147 10043.7 126.92C10048.2 109.44 10055.8 95.2533 10066.5 84.36C10077.3 73.4667 10091.7 65.6133 10109.4 60.8C10127.4 55.7333 10149.8 53.2 10176.7 53.2C10177.4 53.2 10180.5 53.2 10185.8 53.2C10191.1 53.2 10197.2 53.3267 10204 53.58C10211.1 53.58 10218.3 53.7067 10225.7 53.96C10233 53.96 10239.1 54.2133 10243.9 54.72C10252 55.2266 10257.8 57.5066 10261.4 61.56C10264.9 65.6133 10266.7 71.9467 10266.7 80.56V107.16C10266.7 115.267 10264.9 120.587 10261.4 123.12C10258.1 125.4 10252.3 126.54 10243.9 126.54H10178.2C10169.3 126.54 10161.8 127.3 10155.8 128.82C10149.7 130.087 10144.7 133 10140.9 137.56C10137.1 142.12 10134.3 148.58 10132.6 156.94C10130.8 165.3 10129.9 176.32 10129.9 190C10129.9 203.173 10130.3 213.94 10131.1 222.3C10132.1 230.66 10133.8 237.247 10136.4 242.06C10138.9 246.873 10142.2 250.167 10146.3 251.94C10150.6 253.713 10155.9 254.6 10162.2 254.6C10168 254.6 10172.7 253.713 10176.3 251.94C10180.1 250.167 10183 246.367 10185 240.54C10186.3 236.487 10185.8 233.193 10183.5 230.66C10181.5 227.873 10178.2 226.48 10173.6 226.48C10169.3 226.48 10165.8 225.213 10163 222.68C10160.4 219.893 10159.3 216.347 10159.6 212.04V177.08C10159.3 170.24 10161.3 164.793 10165.6 160.74C10169.9 156.433 10175.5 154.28 10182.4 154.28H10247.7C10254.6 154.28 10260.3 156.307 10264.8 160.36C10269.4 164.413 10272 169.86 10272.8 176.7L10274.3 193.04Z" fill="white"/>
</svg>
